<?xml version="1.0" encoding="UTF-8" standalone="no"?>
<!-- Created with Inkscape (http://www.inkscape.org/) -->

<svg
   width="50mm"
   height="50mm"
   viewBox="0 0 50 50"
   version="1.1"
   id="svg1"
   inkscape:version="1.4.2 (ebf0e940d0, 2025-05-08)"
   sodipodi:docname="Skit_logo_main.svg"
   xmlns:inkscape="http://www.inkscape.org/namespaces/inkscape"
   xmlns:sodipodi="http://sodipodi.sourceforge.net/DTD/sodipodi-0.dtd"
   xmlns:xlink="http://www.w3.org/1999/xlink"
   xmlns="http://www.w3.org/2000/svg"
   xmlns:svg="http://www.w3.org/2000/svg">
  <sodipodi:namedview
     id="namedview1"
     pagecolor="#505050"
     bordercolor="#ffffff"
     borderopacity="1"
     inkscape:showpageshadow="0"
     inkscape:pageopacity="0"
     inkscape:pagecheckerboard="1"
     inkscape:deskcolor="#505050"
     inkscape:document-units="mm"
     inkscape:zoom="4.1827231"
     inkscape:cx="92.523457"
     inkscape:cy="92.762535"
     inkscape:window-width="1920"
     inkscape:window-height="1013"
     inkscape:window-x="0"
     inkscape:window-y="0"
     inkscape:window-maximized="1"
     inkscape:current-layer="layer1" />
  <defs
     id="defs1">
    <linearGradient
       id="linearGradient10"
       inkscape:collect="always">
      <stop
         style="stop-color:#00f531;stop-opacity:1;"
         offset="0"
         id="stop10" />
      <stop
         style="stop-color:#24a482;stop-opacity:1;"
         offset="1"
         id="stop11" />
    </linearGradient>
    <linearGradient
       inkscape:collect="always"
       xlink:href="#linearGradient10"
       id="linearGradient11"
       x1="-1.2651247"
       y1="24.954586"
       x2="50.984528"
       y2="24.954586"
       gradientUnits="userSpaceOnUse"
       gradientTransform="matrix(0.95762712,0,0,0.98260869,1.1936765,0.47940582)" />
  </defs>
  <g
     inkscape:label="Layer 1"
     inkscape:groupmode="layer"
     id="layer1">
    <rect
       style="fill:url(#linearGradient11);stroke:none;stroke-width:0;stroke-linecap:round;stroke-linejoin:round;stroke-miterlimit:4.9;stroke-dasharray:none;paint-order:normal"
       id="rect10"
       width="50.035683"
       height="50.035686"
       x="-0.017841339"
       y="-0.017843246"
       ry="0.22076678" />
    <path
       id="rect4"
       style="stroke-width:0;stroke-linecap:round;stroke-linejoin:round;stroke-miterlimit:4.9;fill:#1a1a1a;fill-opacity:1.0"
       d="m 8.4285e-4,-0.20450011 c -0.12117511,0 -0.21884291,0.0990671 -0.21884291,0.22197839 V 49.982519 c 0,0.122911 0.0976676,0.221981 0.21884291,0.221981 H 49.999158 c 0.121174,0 0.218842,-0.09909 0.218842,-0.221981 V 0.01747828 c 0,-0.12291128 -0.09765,-0.22197839 -0.218842,-0.22197839 z M 15.410403,10.921975 h 19.390992 c 0.748175,0 1.388018,0.649523 1.388018,1.408414 V 15.7708 h 2.576309 c 1.71154,0 3.126186,1.434916 3.126186,3.170975 V 35.91011 c 0,1.73606 -1.414646,3.170976 -3.126186,3.170976 H 11.446076 c -1.7115381,0 -3.1261832,-1.434916 -3.1261832,-3.170976 V 18.941775 c 0,-1.736059 1.4146451,-3.170975 3.1261832,-3.170975 h 2.576311 v -3.440411 c 0,-0.758891 0.639843,-1.408414 1.388016,-1.408414 z m 0.948822,2.370322 v 2.440229 h 17.493348 v -2.440229 z m -4.913149,4.846781 c -0.457543,10e-7 -0.790854,0.338597 -0.790854,0.802697 v 3.097489 h 28.901353 v -3.097489 c 0,-0.4641 -0.333308,-0.802697 -0.790853,-0.802697 z m -0.790854,6.713954 V 35.91011 c 0,0.4641 0.333311,0.800652 0.790854,0.800652 h 27.319646 c 0.457545,0 0.790853,-0.336552 0.790853,-0.800652 V 24.853032 Z" />
  </g>
</svg>
